<!DOCTYPE svg PUBLIC "-//W3C//DTD SVG 1.1//EN" "http://www.w3.org/Graphics/SVG/1.1/DTD/svg11.dtd">
<!-- Uploaded to: SVG Repo, www.svgrepo.com, Transformed by: SVG Repo Mixer Tools -->
<svg fill="#47b2e4" height="800px" width="800px" version="1.1" id="Layer_1" xmlns="http://www.w3.org/2000/svg" xmlns:xlink="http://www.w3.org/1999/xlink" viewBox="0 0 512 512" xml:space="preserve">
<g id="SVGRepo_bgCarrier" stroke-width="0"/>
<g id="SVGRepo_tracerCarrier" stroke-linecap="round" stroke-linejoin="round"/>
<g id="SVGRepo_iconCarrier"> <g> <g> <path d="M415.295,284.704h-58.378v-58.04c0-6.232-5.051-11.283-11.283-11.283c-6.232,0-11.283,5.051-11.283,11.283v58.039h-21.957 V33.544c0-6.053,4.925-10.978,10.978-10.978c2.931,0,5.688,1.143,7.762,3.217c2.074,2.075,3.217,4.831,3.217,7.762v128.054 c0,6.232,5.051,11.283,11.283,11.283s11.283-5.051,11.283-11.283V33.544c0-8.958-3.49-17.381-9.826-23.719 C340.752,3.49,332.329,0,323.372,0c-18.496,0-33.544,15.048-33.544,33.544v251.16H264.08h-10.967v-31.401 c0-6.232-5.051-11.283-11.283-11.283H118.845c-6.232,0-11.283,5.051-11.283,11.283v31.401H74.458 c-6.232,0-11.283,5.051-11.283,11.283v44.523c0,6.232,5.051,11.283,11.283,11.283H89.1l27.308,150.933 c0.971,5.37,5.646,9.275,11.102,9.275h228.628c5.456,0,10.131-3.905,11.102-9.275l27.297-150.933h20.756 c8.969,0,17.392-3.493,23.707-9.826c6.337-6.338,9.825-14.76,9.825-23.718C448.828,299.752,433.785,284.704,415.295,284.704z M130.128,264.586h100.419v20.118H130.128V264.586z M85.741,329.227V307.27h33.104h113.539c-1.204,3.485-1.837,7.183-1.837,10.978 c0,3.844,0.658,7.536,1.854,10.978H85.741z M346.712,489.434H136.935l-24.903-137.641H264.08h107.526L346.712,489.434z M423.035,326.02c-2.061,2.068-4.81,3.206-7.739,3.206H264.08c-6.048,0-10.967-4.925-10.967-10.978 c0-2.93,1.142-5.687,3.229-7.773c2.061-2.067,4.809-3.206,7.738-3.206h37.031h44.523h69.661c6.047,0,10.967,4.925,10.967,10.978 C426.262,321.179,425.119,323.935,423.035,326.02z"/> </g> </g> <g> <g> <path d="M345.633,180.592c-6.232,0-11.283,5.051-11.283,11.283v2.632c0,6.232,5.051,11.283,11.283,11.283 s11.283-5.051,11.283-11.283v-2.632C356.916,185.644,351.865,180.592,345.633,180.592z"/> </g> </g> </g>
</svg>