<!DOCTYPE svg PUBLIC "-//W3C//DTD SVG 1.1//EN" "http://www.w3.org/Graphics/SVG/1.1/DTD/svg11.dtd">
<!-- Uploaded to: SVG Repo, www.svgrepo.com, Transformed by: SVG Repo Mixer Tools -->
<svg fill="#47b2e4" height="800px" width="800px" version="1.1" id="Layer_1" xmlns="http://www.w3.org/2000/svg" xmlns:xlink="http://www.w3.org/1999/xlink" viewBox="0 0 496 496" xml:space="preserve" stroke="#47b2e4">
<g id="SVGRepo_bgCarrier" stroke-width="0"/>
<g id="SVGRepo_tracerCarrier" stroke-linecap="round" stroke-linejoin="round"/>
<g id="SVGRepo_iconCarrier"> <g> <g> <g> <path d="M448,351.08V208c0-57.344-46.656-104-104-104c-8.272,0-16.28,1.072-24,2.904V24h-80h-8h-30.472 C193.016,9.264,177.24,0,160,0s-33.016,9.264-41.528,24H88h-8H0v416h192v56h304v-77.088C496,387.936,476.616,361.128,448,351.08z M344,120c48.52,0,88,39.48,88,88v138.864l-40-9.232v-20.12c14.688-13.192,24-32.264,24-53.512l-0.048-59.944l-11.056,4.568 C404.72,208.704,386.552,216,344,216s-60.72-7.296-60.848-7.352L272,203.872V264c0,21.256,9.312,40.328,24,53.512v20.12 l-40,9.232V248v-40C256,159.48,295.48,120,344,120z M325.696,434.384l-45.008-45.016l6.656-33.312l11.368-2.624L325.696,434.384z M288,264v-37.328c10.456,2.44,28.616,5.328,56,5.328c27.384,0,45.544-2.888,56-5.328V264c0,30.872-25.128,56-56,56 S288,294.872,288,264z M312,342.704V328.4c9.656,4.824,20.496,7.6,32,7.6c11.504,0,22.344-2.776,32-7.6v14.304l-32,96 L312,342.704z M389.288,353.432l11.368,2.624l6.656,33.312l-45.008,45.016L389.288,353.432z M240,40h64v72.024 c-5.608,2.344-10.936,5.232-16,8.48V56h-48V40z M96,40h32.608l2.096-4.792C135.816,23.536,147.312,16,160,16 s24.184,7.536,29.296,19.208L191.392,40H224v32H96V40z M192,418.912V424H16V40h64v16H32v352h160.864 C192.328,411.568,192,415.208,192,418.912z M48,392V72h32v16h160V72h32v61.128c-6.112,5.88-11.464,12.496-16,19.704V104H64v144 h176v17.472c-2.512-0.896-5.184-1.472-8-1.472c-13.232,0-24,10.768-24,24c0,4.52,1.328,8.704,3.512,12.312l-19.448,29.176 C189.528,328.584,186.84,328,184,328c-2.84,0-5.528,0.584-8.056,1.488l-19.448-29.176C158.672,296.704,160,292.52,160,288 c0-13.232-10.768-24-24-24s-24,10.768-24,24c0,6.024,2.312,11.48,5.992,15.696l-20.896,26.12C94.288,328.656,91.224,328,88,328 c-13.232,0-24,10.768-24,24s10.768,24,24,24s24-10.768,24-24c0-4.152-1.152-8-3.016-11.416l23.176-28.976 c1.256,0.208,2.528,0.392,3.84,0.392c2.84,0,5.528-0.584,8.056-1.496l19.448,29.176c-2.176,3.616-3.504,7.8-3.504,12.32 c0,13.232,10.768,24,24,24s24-10.768,24-24c0-4.52-1.328-8.704-3.512-12.312l19.448-29.176C226.472,311.416,229.16,312,232,312 c2.816,0,5.488-0.576,8-1.472v40.552c-19.848,6.968-35.216,22.008-42.784,40.92H48z M240,120v88v24H80V120H240z M240,288 c0,4.416-3.584,8-8,8s-8-3.584-8-8c0-4.416,3.584-8,8-8S240,283.584,240,288z M192,352c0,4.416-3.584,8-8,8s-8-3.584-8-8 c0-4.416,3.584-8,8-8S192,347.584,192,352z M144,288c0,4.416-3.584,8-8,8s-8-3.584-8-8c0-4.416,3.584-8,8-8S144,283.584,144,288z M96,352c0,4.416-3.584,8-8,8s-8-3.584-8-8c0-4.416,3.584-8,8-8S96,347.584,96,352z M480,480h-32v-32h-16v32H256v-32h-16v32h-32 v-61.088c0-26.232,17.848-48.672,43.408-54.56l18.832-4.344l-6.928,34.624L344,475.312l80.688-80.68l-6.928-34.624l18.832,4.344 C462.152,370.24,480,392.68,480,418.912V480z"/> <path d="M160,130.664L96,216h128L160,130.664z M160,157.336L192,200h-64L160,157.336z"/> </g> </g> </g> </g>
</svg>