<?xml version="1.0" encoding="iso-8859-1"?>
<!-- Uploaded to: SVG Repo, www.svgrepo.com, Generator: SVG Repo Mixer Tools -->
<svg height="800px" width="800px" version="1.1" id="Layer_1" xmlns="http://www.w3.org/2000/svg" xmlns:xlink="http://www.w3.org/1999/xlink" 
	 viewBox="0 0 448.546 448.546" xml:space="preserve">
<g transform="translate(0 -1020.36)">
	<g shape-rendering="auto" image-rendering="auto" color-rendering="auto" color-interpolation="sRGB">
		<path style="fill:#5A3392;" d="M54.42,1375.332c0.157,0.176,0.278,0.416,0.435,0.656c-0.073,0.176-0.151,0.176-0.218,0.305
			l-53.281,79.906c-3.542,5.314,0.266,12.436,6.656,12.438h44.406c2.59,0.008,5.024-1.232,6.531-3.344l35.5-49.938l0.097-0.176
			c-15.272-11.24-28.765-24.666-40.125-39.846L54.42,1375.332z M361.17,1376.019c-11.268,14.92-24.621,28.107-39.688,39.189
			l0.096,0.176l35.5,49.938c1.507,2.105,3.941,3.35,6.531,3.344h44.406c6.389-0.002,10.2-7.121,6.656-12.438l-53.281-79.906
			c-0.067-0.176-0.146-0.176-0.218-0.305L361.17,1376.019z"/>
		<g>
			<path style="fill:#3CDEF6;" d="M65.488,1388.873c5.208,5.787,10.726,11.262,16.594,16.377c-0.236,0.258-0.455,0.529-0.656,0.816
				L48.3,1452.629H22.957l42.531-63.75L65.488,1388.873z"/>
			<path style="fill:#3CDEF6;" d="M350.55,1388.873l42.531,63.75h-25.344l-33.125-46.563c-0.191-0.285-0.4-0.559-0.625-0.816
				c5.861-5.111,11.359-10.598,16.563-16.377L350.55,1388.873z"/>
		</g>
		<path style="fill:#EE746C;" d="M208.03,1084.648c97.297,0,176,78.672,176,175.969c0,97.297-78.703,176-176,176
			s-176-78.703-176-176C32.031,1163.32,110.734,1084.648,208.03,1084.648z"/>
		<path style="fill:#FB9761;" d="M208.03,1096.637c-90.663,0-163.999,73.297-164,163.969c0,43.902,17.283,83.676,45.312,113.094
			l231.75-231.748C291.677,1113.926,251.93,1096.637,208.03,1096.637L208.03,1096.637z"/>
		<path style="fill:#29A3EC;" d="M208.03,1148.625c61.951,0,112,50.049,112,112c0,61.951-50.049,112-112,112s-112-50.049-112-112
			C96.03,1198.674,146.079,1148.625,208.03,1148.625L208.03,1148.625z"/>
		<path style="fill:#3CDEF6;" d="M206.437,1159.834c-56.641-0.002-102.407,45.766-102.406,102.404
			c0,26.889,10.388,51.248,27.281,69.5l144.625-144.625C257.683,1170.215,233.33,1159.834,206.437,1159.834z"/>
		<path style="fill:#FDFDFE;" d="M144.898,1190.281c-1.556,0.033-3.038,0.668-4.134,1.773
			c-18.721,18.375-29.065,43.691-28.701,69.92c-0.29,3.301,2.151,6.213,5.452,6.504c3.301,0.289,6.213-2.152,6.503-5.453
			c0.038-0.43,0.029-0.863-0.026-1.291c-0.32-22.955,8.773-44.982,25.158-61.063c2.428-2.256,2.568-6.053,0.312-8.48
			c-1.175-1.266-2.838-1.963-4.564-1.914L144.898,1190.281z"/>
	</g>
	<path style="fill:#FDFDFE;" d="M124.03,1280.748c-0.001,3.313-2.687,5.998-6,5.998s-5.999-2.686-6-5.998
		c0.001-3.313,2.687-5.998,6-5.998S124.028,1277.435,124.03,1280.748z"/>
	<g shape-rendering="auto" image-rendering="auto" color-rendering="auto" color-interpolation="sRGB">
		<path style="fill:#5A3392;" d="M407.158,1020.646c-4.115,0.472-7.19,4.007-7.087,8.148v31.889
			c0.047,4.352,3.562,7.867,7.913,7.914h31.89c4.403,0.371,8.273-2.898,8.643-7.303c0.37-4.402-2.899-8.271-7.302-8.643
			c-0.446-0.037-0.895-0.037-1.341,0h-23.858v-23.857c0.107-4.417-3.387-8.085-7.804-8.192
			C407.86,1020.594,407.508,1020.608,407.158,1020.646L407.158,1020.646z"/>
		<path style="fill:#FDFDFE;" d="M208.03,1308.617c-26.605,0-48-21.396-48-48c0-26.605,21.395-48,48-48s48,21.395,48,48
			C256.03,1287.221,234.635,1308.617,208.03,1308.617z"/>
		<path style="fill:#EBFEFF;" d="M208.03,1300.629c22.17,0,40-17.832,40-40c0-9.65-3.515-18.359-9.156-25.252l-56.094,56.094
			c6.892,5.643,15.603,9.156,25.25,9.156L208.03,1300.629z"/>
		<g>
			<g>
				<path style="fill:#5A3392;" d="M199.166,1228.639c-4.115,0.473-7.19,4.008-7.087,8.148v31.773
					c-0.017,4.418,3.552,8.014,7.97,8.031c0.02,0,0.041,0,0.061,0l31.89-0.24c4.436-0.033,8.004-3.656,7.971-8.092
					c-0.034-4.436-3.657-8.004-8.092-7.971l-23.858,0.24v-23.738c0.108-4.418-3.385-8.086-7.802-8.193
					c-0.353-0.01-0.705,0.006-1.056,0.043L199.166,1228.639z"/>
				<path style="fill:#5A3392;" d="M375.15,1052.652c-4.07,0.469-7.129,3.936-7.087,8.031v31.889
					c-0.017,4.396,3.517,7.982,7.913,8.031h31.89c4.403,0.377,8.277-2.887,8.654-7.289c0.377-4.402-2.887-8.277-7.29-8.654
					c-0.454-0.039-0.91-0.039-1.364,0h-23.858v-23.979c0.042-4.418-3.505-8.035-7.924-8.076c-0.312-0.004-0.624,0.012-0.934,0.045
					V1052.652z"/>
				<path style="fill:#5A3392;" d="M407.04,1052.652c-1.797,0.23-3.463,1.064-4.725,2.365l-203.976,203.977
					c-3.131,3.131-3.132,8.207-0.001,11.34c3.131,3.131,8.208,3.131,11.339,0l203.976-203.977c3.188-3.059,3.293-8.125,0.233-11.313
					c-1.77-1.844-4.314-2.732-6.847-2.389L407.04,1052.652z"/>
			</g>
			<path style="fill:#5A3392;" d="M252.637,1140.648c-44.009-16.314-95.148-7.598-131.484,25.969
				c-48.448,44.76-54.898,119.199-14.894,171.643c40.004,52.445,113.49,65.885,169.462,30.99c3.845-2.178,5.196-7.061,3.017-10.904
				c-2.178-3.846-7.06-5.197-10.905-3.018c-0.187,0.105-0.37,0.219-0.548,0.34c-49.087,30.602-113.24,18.869-148.323-27.123
				c-35.083-45.992-29.444-110.918,13.045-150.172c42.488-39.252,107.682-39.766,150.757-1.152
				c43.075,38.607,49.694,103.484,15.307,150c-2.724,3.479-2.111,8.508,1.368,11.232c3.479,2.723,8.508,2.111,11.232-1.369
				c0.095-0.121,0.186-0.244,0.274-0.371c39.21-53.039,31.616-127.365-17.5-171.391c-12.279-11.004-26.139-19.23-40.808-24.67
				L252.637,1140.648z"/>
			<path style="fill:#5A3392;" d="M216.741,1324.029c22.36-3.102,42.213-17.967,50.875-40c11.55-29.377-0.139-62.932-27.437-78.781
				c-27.298-15.85-62.217-9.348-82,15.25c-2.954,3.285-2.685,8.344,0.601,11.299s8.345,2.686,11.299-0.602
				c0.191-0.211,0.371-0.434,0.538-0.666c14.901-18.527,40.97-23.377,61.531-11.438s29.262,36.965,20.563,59.094
				c-8.7,22.129-32.128,34.514-55.313,29.25s-38.957-26.564-37.25-50.281c0.555-4.383-2.55-8.387-6.933-8.941
				s-8.387,2.549-8.942,6.934c-0.037,0.295-0.058,0.592-0.062,0.889c-2.266,31.486,18.874,60.012,49.656,67
				c7.695,1.748,15.422,2.033,22.875,0.992V1324.029z"/>
			<path style="fill:#5A3392;" d="M212.148,1068.685c-45.271-0.977-90.878,13.986-127.781,45.063
				c-3.47,2.736-4.064,7.768-1.328,11.236c2.736,3.471,7.767,4.064,11.237,1.328c0.127-0.1,0.252-0.205,0.373-0.313
				c67.747-57.051,167.166-54.934,232.406,4.969c65.241,59.9,75.853,158.766,24.781,231.125
				c-51.071,72.361-147.799,95.529-226.094,54.125s-113.59-134.367-82.531-217.313c1.532-4.15-0.59-8.756-4.74-10.289
				c-4.12-1.52-8.697,0.561-10.26,4.664c-33.837,90.363,4.765,191.955,90.063,237.064c85.297,45.107,190.986,19.832,246.625-59.002
				c55.639-78.832,44.076-186.898-27-252.154c-35.538-32.629-80.478-49.529-125.75-50.5V1068.685z"/>
			<path style="fill:#5A3392;" d="M72.71,1128.154c-2.358-0.061-4.622,0.924-6.188,2.688
				c-11.177,12.186-20.708,25.771-28.406,40.406c-2.195,3.834-0.866,8.723,2.968,10.918c3.835,2.195,8.723,0.867,10.919-2.969
				c0.096-0.166,0.186-0.338,0.269-0.512c7.056-13.414,15.817-25.861,26.063-37.031c3.038-3.209,2.9-8.271-0.308-11.311
				C76.587,1128.98,74.692,1128.199,72.71,1128.154z"/>
		</g>
	</g>
	<path style="fill:#5A3392;" d="M281.887,1348.666c0.001-4.418,3.583-8,8.002-8c4.419,0,8.001,3.582,8.002,8
		c-0.001,4.418-3.583,8-8.002,8C285.47,1356.666,281.888,1353.084,281.887,1348.666z"/>
</g>
</svg>